<?xml version="1.0" encoding="UTF-8" standalone="no"?>
<!DOCTYPE svg PUBLIC "-//W3C//DTD SVG 1.1//EN"
 "http://www.w3.org/Graphics/SVG/1.1/DTD/svg11.dtd">
<!-- Generated by graphviz version 2.44.1 (20200629.0846)
 -->
<!-- Title: Splines::QuinticSpline Pages: 1 -->
<svg width="143pt" height="277pt"
 viewBox="0.00 0.00 143.00 277.00" xmlns="http://www.w3.org/2000/svg" xmlns:xlink="http://www.w3.org/1999/xlink">
<g id="graph0" class="graph" transform="scale(1 1) rotate(0) translate(4 273)">
<title>Splines::QuinticSpline</title>
<polygon fill="white" stroke="transparent" points="-4,4 -4,-273 139,-273 139,4 -4,4"/>
<!-- Node1 -->
<g id="node1" class="node">
<title>Node1</title>
<g id="a_node1"><a xlink:title="Quintic spline class.">
<polygon fill="#bfbfbf" stroke="black" points="11,-0.5 11,-19.5 124,-19.5 124,-0.5 11,-0.5"/>
<text text-anchor="middle" x="67.5" y="-7.5" font-family="Helvetica,sans-Serif" font-size="10.00">Splines::QuinticSpline</text>
</a>
</g>
</g>
<!-- Node2 -->
<g id="node2" class="node">
<title>Node2</title>
<g id="a_node2"><a xlink:href="class_splines_1_1_quintic_spline_base.html" target="_top" xlink:title="cubic quintic base class">
<polygon fill="white" stroke="black" points="0,-57.5 0,-76.5 135,-76.5 135,-57.5 0,-57.5"/>
<text text-anchor="middle" x="67.5" y="-64.5" font-family="Helvetica,sans-Serif" font-size="10.00">Splines::QuinticSplineBase</text>
</a>
</g>
</g>
<!-- Node2&#45;&gt;Node1 -->
<g id="edge1" class="edge">
<title>Node2&#45;&gt;Node1</title>
<path fill="none" stroke="midnightblue" d="M67.5,-47.12C67.5,-37.82 67.5,-27.06 67.5,-19.71"/>
<polygon fill="midnightblue" stroke="midnightblue" points="64,-47.41 67.5,-57.41 71,-47.41 64,-47.41"/>
</g>
<!-- Node3 -->
<g id="node3" class="node">
<title>Node3</title>
<g id="a_node3"><a xlink:href="class_splines_1_1_spline.html" target="_top" xlink:title="Spline Management Class.">
<polygon fill="white" stroke="black" points="26.5,-114.5 26.5,-133.5 108.5,-133.5 108.5,-114.5 26.5,-114.5"/>
<text text-anchor="middle" x="67.5" y="-121.5" font-family="Helvetica,sans-Serif" font-size="10.00">Splines::Spline</text>
</a>
</g>
</g>
<!-- Node3&#45;&gt;Node2 -->
<g id="edge2" class="edge">
<title>Node3&#45;&gt;Node2</title>
<path fill="none" stroke="midnightblue" d="M67.5,-104.12C67.5,-94.82 67.5,-84.06 67.5,-76.71"/>
<polygon fill="midnightblue" stroke="midnightblue" points="64,-104.41 67.5,-114.41 71,-104.41 64,-104.41"/>
</g>
<!-- Node4 -->
<g id="node4" class="node">
<title>Node4</title>
<g id="a_node4"><a xlink:title="STL class.">
<polygon fill="white" stroke="#bfbfbf" points="37.5,-181.5 37.5,-200.5 97.5,-200.5 97.5,-181.5 37.5,-181.5"/>
<text text-anchor="middle" x="67.5" y="-188.5" font-family="Helvetica,sans-Serif" font-size="10.00">std::string</text>
</a>
</g>
</g>
<!-- Node4&#45;&gt;Node3 -->
<g id="edge3" class="edge">
<title>Node4&#45;&gt;Node3</title>
<path fill="none" stroke="#9a32cd" stroke-dasharray="5,2" d="M67.5,-171.04C67.5,-158.67 67.5,-143.12 67.5,-133.63"/>
<polygon fill="#9a32cd" stroke="#9a32cd" points="64,-171.23 67.5,-181.23 71,-171.23 64,-171.23"/>
<text text-anchor="middle" x="88" y="-155" font-family="Helvetica,sans-Serif" font-size="10.00"> m_name</text>
</g>
<!-- Node5 -->
<g id="node5" class="node">
<title>Node5</title>
<g id="a_node5"><a xlink:title="STL class.">
<polygon fill="white" stroke="#bfbfbf" points="20,-238.5 20,-268.5 115,-268.5 115,-238.5 20,-238.5"/>
<text text-anchor="start" x="28" y="-256.5" font-family="Helvetica,sans-Serif" font-size="10.00">std::basic_string&lt;</text>
<text text-anchor="middle" x="67.5" y="-245.5" font-family="Helvetica,sans-Serif" font-size="10.00"> char &gt;</text>
</a>
</g>
</g>
<!-- Node5&#45;&gt;Node4 -->
<g id="edge4" class="edge">
<title>Node5&#45;&gt;Node4</title>
<path fill="none" stroke="midnightblue" d="M67.5,-228.35C67.5,-218.51 67.5,-207.78 67.5,-200.54"/>
<polygon fill="midnightblue" stroke="midnightblue" points="64,-228.47 67.5,-238.47 71,-228.47 64,-228.47"/>
</g>
</g>
</svg>
