<?xml version="1.0" encoding="UTF-8" standalone="no"?>
<!DOCTYPE svg PUBLIC "-//W3C//DTD SVG 1.1//EN"
 "http://www.w3.org/Graphics/SVG/1.1/DTD/svg11.dtd">
<!-- Generated by graphviz version 2.44.1 (20200629.0846)
 -->
<!-- Title: Splines::BiCubicSplineBase Pages: 1 -->
<svg width="264pt" height="140pt"
 viewBox="0.00 0.00 263.50 140.00" xmlns="http://www.w3.org/2000/svg" xmlns:xlink="http://www.w3.org/1999/xlink">
<g id="graph0" class="graph" transform="scale(1 1) rotate(0) translate(4 136)">
<title>Splines::BiCubicSplineBase</title>
<polygon fill="white" stroke="transparent" points="-4,4 -4,-136 259.5,-136 259.5,4 -4,4"/>
<!-- Node1 -->
<g id="node1" class="node">
<title>Node1</title>
<g id="a_node1"><a xlink:title="Bi&#45;cubic spline base class.">
<polygon fill="#bfbfbf" stroke="black" points="59,-56.5 59,-75.5 198,-75.5 198,-56.5 59,-56.5"/>
<text text-anchor="middle" x="128.5" y="-63.5" font-family="Helvetica,sans-Serif" font-size="10.00">Splines::BiCubicSplineBase</text>
</a>
</g>
</g>
<!-- Node3 -->
<g id="node3" class="node">
<title>Node3</title>
<g id="a_node3"><a xlink:href="class_splines_1_1_akima2_dspline.html" target="_top" xlink:title="cubic spline base class">
<polygon fill="white" stroke="black" points="0,-0.5 0,-19.5 121,-19.5 121,-0.5 0,-0.5"/>
<text text-anchor="middle" x="60.5" y="-7.5" font-family="Helvetica,sans-Serif" font-size="10.00">Splines::Akima2Dspline</text>
</a>
</g>
</g>
<!-- Node1&#45;&gt;Node3 -->
<g id="edge2" class="edge">
<title>Node1&#45;&gt;Node3</title>
<path fill="none" stroke="midnightblue" d="M109.74,-50.1C97.5,-40.38 81.94,-28.03 71.62,-19.83"/>
<polygon fill="midnightblue" stroke="midnightblue" points="107.57,-52.85 117.57,-56.32 111.92,-47.36 107.57,-52.85"/>
</g>
<!-- Node4 -->
<g id="node4" class="node">
<title>Node4</title>
<g id="a_node4"><a xlink:href="class_splines_1_1_bi_cubic_spline.html" target="_top" xlink:title="cubic spline base class">
<polygon fill="white" stroke="black" points="139.5,-0.5 139.5,-19.5 255.5,-19.5 255.5,-0.5 139.5,-0.5"/>
<text text-anchor="middle" x="197.5" y="-7.5" font-family="Helvetica,sans-Serif" font-size="10.00">Splines::BiCubicSpline</text>
</a>
</g>
</g>
<!-- Node1&#45;&gt;Node4 -->
<g id="edge3" class="edge">
<title>Node1&#45;&gt;Node4</title>
<path fill="none" stroke="midnightblue" d="M147.54,-50.1C159.96,-40.38 175.74,-28.03 186.21,-19.83"/>
<polygon fill="midnightblue" stroke="midnightblue" points="145.3,-47.4 139.59,-56.32 149.62,-52.92 145.3,-47.4"/>
</g>
<!-- Node2 -->
<g id="node2" class="node">
<title>Node2</title>
<g id="a_node2"><a xlink:href="class_splines_1_1_spline_surf.html" target="_top" xlink:title="Spline Management Class.">
<polygon fill="white" stroke="black" points="78.5,-112.5 78.5,-131.5 178.5,-131.5 178.5,-112.5 78.5,-112.5"/>
<text text-anchor="middle" x="128.5" y="-119.5" font-family="Helvetica,sans-Serif" font-size="10.00">Splines::SplineSurf</text>
</a>
</g>
</g>
<!-- Node2&#45;&gt;Node1 -->
<g id="edge1" class="edge">
<title>Node2&#45;&gt;Node1</title>
<path fill="none" stroke="midnightblue" d="M128.5,-101.8C128.5,-92.91 128.5,-82.78 128.5,-75.75"/>
<polygon fill="midnightblue" stroke="midnightblue" points="125,-102.08 128.5,-112.08 132,-102.08 125,-102.08"/>
</g>
</g>
</svg>
