<?xml version="1.0" encoding="UTF-8" standalone="no"?>
<!DOCTYPE svg PUBLIC "-//W3C//DTD SVG 1.1//EN"
 "http://www.w3.org/Graphics/SVG/1.1/DTD/svg11.dtd">
<!-- Generated by graphviz version 2.44.1 (20200629.0846)
 -->
<!-- Title: Splines::Spline2D Pages: 1 -->
<svg width="199pt" height="230pt"
 viewBox="0.00 0.00 198.50 230.00" xmlns="http://www.w3.org/2000/svg" xmlns:xlink="http://www.w3.org/1999/xlink">
<g id="graph0" class="graph" transform="scale(1 1) rotate(0) translate(4 226)">
<title>Splines::Spline2D</title>
<polygon fill="white" stroke="transparent" points="-4,4 -4,-226 194.5,-226 194.5,4 -4,4"/>
<!-- Node1 -->
<g id="node1" class="node">
<title>Node1</title>
<g id="a_node1"><a xlink:title="Bi&#45;quintic spline base class.">
<polygon fill="#bfbfbf" stroke="black" points="0,-0.5 0,-19.5 95,-19.5 95,-0.5 0,-0.5"/>
<text text-anchor="middle" x="47.5" y="-7.5" font-family="Helvetica,sans-Serif" font-size="10.00">Splines::Spline2D</text>
</a>
</g>
</g>
<!-- Node2 -->
<g id="node2" class="node">
<title>Node2</title>
<g id="a_node2"><a xlink:title="STL class.">
<polygon fill="white" stroke="#bfbfbf" points="17.5,-134.5 17.5,-153.5 77.5,-153.5 77.5,-134.5 17.5,-134.5"/>
<text text-anchor="middle" x="47.5" y="-141.5" font-family="Helvetica,sans-Serif" font-size="10.00">std::string</text>
</a>
</g>
</g>
<!-- Node2&#45;&gt;Node1 -->
<g id="edge1" class="edge">
<title>Node2&#45;&gt;Node1</title>
<path fill="none" stroke="#9a32cd" stroke-dasharray="5,2" d="M44.1,-123.85C41.76,-108.5 39.29,-86.39 40.5,-67 41.55,-50.18 44.35,-30.68 46.07,-19.7"/>
<polygon fill="#9a32cd" stroke="#9a32cd" points="40.71,-124.82 45.79,-134.12 47.62,-123.68 40.71,-124.82"/>
<text text-anchor="middle" x="61" y="-74.5" font-family="Helvetica,sans-Serif" font-size="10.00"> m_name</text>
</g>
<!-- Node4 -->
<g id="node4" class="node">
<title>Node4</title>
<g id="a_node4"><a xlink:href="class_splines_1_1_spline_surf.html" target="_top" xlink:title="Spline Management Class.">
<polygon fill="white" stroke="black" points="90.5,-67.5 90.5,-86.5 190.5,-86.5 190.5,-67.5 90.5,-67.5"/>
<text text-anchor="middle" x="140.5" y="-74.5" font-family="Helvetica,sans-Serif" font-size="10.00">Splines::SplineSurf</text>
</a>
</g>
</g>
<!-- Node2&#45;&gt;Node4 -->
<g id="edge4" class="edge">
<title>Node2&#45;&gt;Node4</title>
<path fill="none" stroke="#9a32cd" stroke-dasharray="5,2" d="M68.36,-128.42C86.75,-115.57 112.91,-97.28 128.16,-86.63"/>
<polygon fill="#9a32cd" stroke="#9a32cd" points="66.23,-125.64 60.04,-134.23 70.24,-131.37 66.23,-125.64"/>
<text text-anchor="middle" x="120" y="-108" font-family="Helvetica,sans-Serif" font-size="10.00"> m_name</text>
</g>
<!-- Node3 -->
<g id="node3" class="node">
<title>Node3</title>
<g id="a_node3"><a xlink:title="STL class.">
<polygon fill="white" stroke="#bfbfbf" points="0,-191.5 0,-221.5 95,-221.5 95,-191.5 0,-191.5"/>
<text text-anchor="start" x="8" y="-209.5" font-family="Helvetica,sans-Serif" font-size="10.00">std::basic_string&lt;</text>
<text text-anchor="middle" x="47.5" y="-198.5" font-family="Helvetica,sans-Serif" font-size="10.00"> char &gt;</text>
</a>
</g>
</g>
<!-- Node3&#45;&gt;Node2 -->
<g id="edge2" class="edge">
<title>Node3&#45;&gt;Node2</title>
<path fill="none" stroke="midnightblue" d="M47.5,-181.35C47.5,-171.51 47.5,-160.78 47.5,-153.54"/>
<polygon fill="midnightblue" stroke="midnightblue" points="44,-181.47 47.5,-191.47 51,-181.47 44,-181.47"/>
</g>
<!-- Node4&#45;&gt;Node1 -->
<g id="edge3" class="edge">
<title>Node4&#45;&gt;Node1</title>
<path fill="none" stroke="#9a32cd" stroke-dasharray="5,2" d="M119.64,-61.42C101.25,-48.57 75.09,-30.28 59.84,-19.63"/>
<polygon fill="#9a32cd" stroke="#9a32cd" points="117.76,-64.37 127.96,-67.23 121.77,-58.64 117.76,-64.37"/>
<text text-anchor="middle" x="130.5" y="-41" font-family="Helvetica,sans-Serif" font-size="10.00"> m_pSpline2D</text>
</g>
</g>
</svg>
