<?xml version="1.0" encoding="UTF-8" standalone="no"?>
<!DOCTYPE svg PUBLIC "-//W3C//DTD SVG 1.1//EN"
 "http://www.w3.org/Graphics/SVG/1.1/DTD/svg11.dtd">
<!-- Generated by graphviz version 2.44.1 (20200629.0846)
 -->
<!-- Title: Splines::BiQuinticSpline Pages: 1 -->
<svg width="152pt" height="277pt"
 viewBox="0.00 0.00 152.00 277.00" xmlns="http://www.w3.org/2000/svg" xmlns:xlink="http://www.w3.org/1999/xlink">
<g id="graph0" class="graph" transform="scale(1 1) rotate(0) translate(4 273)">
<title>Splines::BiQuinticSpline</title>
<polygon fill="white" stroke="transparent" points="-4,4 -4,-273 148,-273 148,4 -4,4"/>
<!-- Node1 -->
<g id="node1" class="node">
<title>Node1</title>
<g id="a_node1"><a xlink:title="cubic spline base class">
<polygon fill="#bfbfbf" stroke="black" points="11,-0.5 11,-19.5 133,-19.5 133,-0.5 11,-0.5"/>
<text text-anchor="middle" x="72" y="-7.5" font-family="Helvetica,sans-Serif" font-size="10.00">Splines::BiQuinticSpline</text>
</a>
</g>
</g>
<!-- Node2 -->
<g id="node2" class="node">
<title>Node2</title>
<g id="a_node2"><a xlink:href="class_splines_1_1_bi_quintic_spline_base.html" target="_top" xlink:title="Bi&#45;quintic spline base class.">
<polygon fill="white" stroke="black" points="0,-57.5 0,-76.5 144,-76.5 144,-57.5 0,-57.5"/>
<text text-anchor="middle" x="72" y="-64.5" font-family="Helvetica,sans-Serif" font-size="10.00">Splines::BiQuinticSplineBase</text>
</a>
</g>
</g>
<!-- Node2&#45;&gt;Node1 -->
<g id="edge1" class="edge">
<title>Node2&#45;&gt;Node1</title>
<path fill="none" stroke="midnightblue" d="M72,-47.12C72,-37.82 72,-27.06 72,-19.71"/>
<polygon fill="midnightblue" stroke="midnightblue" points="68.5,-47.41 72,-57.41 75.5,-47.41 68.5,-47.41"/>
</g>
<!-- Node3 -->
<g id="node3" class="node">
<title>Node3</title>
<g id="a_node3"><a xlink:href="class_splines_1_1_spline_surf.html" target="_top" xlink:title="Spline Management Class.">
<polygon fill="white" stroke="black" points="22,-114.5 22,-133.5 122,-133.5 122,-114.5 22,-114.5"/>
<text text-anchor="middle" x="72" y="-121.5" font-family="Helvetica,sans-Serif" font-size="10.00">Splines::SplineSurf</text>
</a>
</g>
</g>
<!-- Node3&#45;&gt;Node2 -->
<g id="edge2" class="edge">
<title>Node3&#45;&gt;Node2</title>
<path fill="none" stroke="midnightblue" d="M72,-104.12C72,-94.82 72,-84.06 72,-76.71"/>
<polygon fill="midnightblue" stroke="midnightblue" points="68.5,-104.41 72,-114.41 75.5,-104.41 68.5,-104.41"/>
</g>
<!-- Node4 -->
<g id="node4" class="node">
<title>Node4</title>
<g id="a_node4"><a xlink:title="STL class.">
<polygon fill="white" stroke="#bfbfbf" points="42,-181.5 42,-200.5 102,-200.5 102,-181.5 42,-181.5"/>
<text text-anchor="middle" x="72" y="-188.5" font-family="Helvetica,sans-Serif" font-size="10.00">std::string</text>
</a>
</g>
</g>
<!-- Node4&#45;&gt;Node3 -->
<g id="edge3" class="edge">
<title>Node4&#45;&gt;Node3</title>
<path fill="none" stroke="#9a32cd" stroke-dasharray="5,2" d="M72,-171.04C72,-158.67 72,-143.12 72,-133.63"/>
<polygon fill="#9a32cd" stroke="#9a32cd" points="68.5,-171.23 72,-181.23 75.5,-171.23 68.5,-171.23"/>
<text text-anchor="middle" x="92.5" y="-155" font-family="Helvetica,sans-Serif" font-size="10.00"> m_name</text>
</g>
<!-- Node5 -->
<g id="node5" class="node">
<title>Node5</title>
<g id="a_node5"><a xlink:title="STL class.">
<polygon fill="white" stroke="#bfbfbf" points="24.5,-238.5 24.5,-268.5 119.5,-268.5 119.5,-238.5 24.5,-238.5"/>
<text text-anchor="start" x="32.5" y="-256.5" font-family="Helvetica,sans-Serif" font-size="10.00">std::basic_string&lt;</text>
<text text-anchor="middle" x="72" y="-245.5" font-family="Helvetica,sans-Serif" font-size="10.00"> char &gt;</text>
</a>
</g>
</g>
<!-- Node5&#45;&gt;Node4 -->
<g id="edge4" class="edge">
<title>Node5&#45;&gt;Node4</title>
<path fill="none" stroke="midnightblue" d="M72,-228.35C72,-218.51 72,-207.78 72,-200.54"/>
<polygon fill="midnightblue" stroke="midnightblue" points="68.5,-228.47 72,-238.47 75.5,-228.47 68.5,-228.47"/>
</g>
</g>
</svg>
