<?xml version="1.0" encoding="UTF-8" standalone="no"?>
<!DOCTYPE svg PUBLIC "-//W3C//DTD SVG 1.1//EN"
 "http://www.w3.org/Graphics/SVG/1.1/DTD/svg11.dtd">
<!-- Generated by graphviz version 2.44.1 (20200629.0846)
 -->
<!-- Title: Splines::CubicSplineBase Pages: 1 -->
<svg width="138pt" height="220pt"
 viewBox="0.00 0.00 138.00 220.00" xmlns="http://www.w3.org/2000/svg" xmlns:xlink="http://www.w3.org/1999/xlink">
<g id="graph0" class="graph" transform="scale(1 1) rotate(0) translate(4 216)">
<title>Splines::CubicSplineBase</title>
<polygon fill="white" stroke="transparent" points="-4,4 -4,-216 134,-216 134,4 -4,4"/>
<!-- Node1 -->
<g id="node1" class="node">
<title>Node1</title>
<g id="a_node1"><a xlink:title="cubic spline base class">
<polygon fill="#bfbfbf" stroke="black" points="0,-0.5 0,-19.5 130,-19.5 130,-0.5 0,-0.5"/>
<text text-anchor="middle" x="65" y="-7.5" font-family="Helvetica,sans-Serif" font-size="10.00">Splines::CubicSplineBase</text>
</a>
</g>
</g>
<!-- Node2 -->
<g id="node2" class="node">
<title>Node2</title>
<g id="a_node2"><a xlink:href="class_splines_1_1_spline.html" target="_top" xlink:title="Spline Management Class.">
<polygon fill="white" stroke="black" points="24,-57.5 24,-76.5 106,-76.5 106,-57.5 24,-57.5"/>
<text text-anchor="middle" x="65" y="-64.5" font-family="Helvetica,sans-Serif" font-size="10.00">Splines::Spline</text>
</a>
</g>
</g>
<!-- Node2&#45;&gt;Node1 -->
<g id="edge1" class="edge">
<title>Node2&#45;&gt;Node1</title>
<path fill="none" stroke="midnightblue" d="M65,-47.12C65,-37.82 65,-27.06 65,-19.71"/>
<polygon fill="midnightblue" stroke="midnightblue" points="61.5,-47.41 65,-57.41 68.5,-47.41 61.5,-47.41"/>
</g>
<!-- Node3 -->
<g id="node3" class="node">
<title>Node3</title>
<g id="a_node3"><a xlink:title="STL class.">
<polygon fill="white" stroke="#bfbfbf" points="35,-124.5 35,-143.5 95,-143.5 95,-124.5 35,-124.5"/>
<text text-anchor="middle" x="65" y="-131.5" font-family="Helvetica,sans-Serif" font-size="10.00">std::string</text>
</a>
</g>
</g>
<!-- Node3&#45;&gt;Node2 -->
<g id="edge2" class="edge">
<title>Node3&#45;&gt;Node2</title>
<path fill="none" stroke="#9a32cd" stroke-dasharray="5,2" d="M65,-114.04C65,-101.67 65,-86.12 65,-76.63"/>
<polygon fill="#9a32cd" stroke="#9a32cd" points="61.5,-114.23 65,-124.23 68.5,-114.23 61.5,-114.23"/>
<text text-anchor="middle" x="85.5" y="-98" font-family="Helvetica,sans-Serif" font-size="10.00"> m_name</text>
</g>
<!-- Node4 -->
<g id="node4" class="node">
<title>Node4</title>
<g id="a_node4"><a xlink:title="STL class.">
<polygon fill="white" stroke="#bfbfbf" points="17.5,-181.5 17.5,-211.5 112.5,-211.5 112.5,-181.5 17.5,-181.5"/>
<text text-anchor="start" x="25.5" y="-199.5" font-family="Helvetica,sans-Serif" font-size="10.00">std::basic_string&lt;</text>
<text text-anchor="middle" x="65" y="-188.5" font-family="Helvetica,sans-Serif" font-size="10.00"> char &gt;</text>
</a>
</g>
</g>
<!-- Node4&#45;&gt;Node3 -->
<g id="edge3" class="edge">
<title>Node4&#45;&gt;Node3</title>
<path fill="none" stroke="midnightblue" d="M65,-171.35C65,-161.51 65,-150.78 65,-143.54"/>
<polygon fill="midnightblue" stroke="midnightblue" points="61.5,-171.47 65,-181.47 68.5,-171.47 61.5,-171.47"/>
</g>
</g>
</svg>
