<?xml version="1.0" encoding="UTF-8" standalone="no"?>
<!DOCTYPE svg PUBLIC "-//W3C//DTD SVG 1.1//EN"
 "http://www.w3.org/Graphics/SVG/1.1/DTD/svg11.dtd">
<!-- Generated by graphviz version 2.44.1 (20200629.0846)
 -->
<!-- Title: Splines::BiCubicSpline Pages: 1 -->
<svg width="147pt" height="140pt"
 viewBox="0.00 0.00 147.00 140.00" xmlns="http://www.w3.org/2000/svg" xmlns:xlink="http://www.w3.org/1999/xlink">
<g id="graph0" class="graph" transform="scale(1 1) rotate(0) translate(4 136)">
<title>Splines::BiCubicSpline</title>
<polygon fill="white" stroke="transparent" points="-4,4 -4,-136 143,-136 143,4 -4,4"/>
<!-- Node1 -->
<g id="node1" class="node">
<title>Node1</title>
<g id="a_node1"><a xlink:title="cubic spline base class">
<polygon fill="#bfbfbf" stroke="black" points="11.5,-0.5 11.5,-19.5 127.5,-19.5 127.5,-0.5 11.5,-0.5"/>
<text text-anchor="middle" x="69.5" y="-7.5" font-family="Helvetica,sans-Serif" font-size="10.00">Splines::BiCubicSpline</text>
</a>
</g>
</g>
<!-- Node2 -->
<g id="node2" class="node">
<title>Node2</title>
<g id="a_node2"><a xlink:href="class_splines_1_1_bi_cubic_spline_base.html" target="_top" xlink:title="Bi&#45;cubic spline base class.">
<polygon fill="white" stroke="black" points="0,-56.5 0,-75.5 139,-75.5 139,-56.5 0,-56.5"/>
<text text-anchor="middle" x="69.5" y="-63.5" font-family="Helvetica,sans-Serif" font-size="10.00">Splines::BiCubicSplineBase</text>
</a>
</g>
</g>
<!-- Node2&#45;&gt;Node1 -->
<g id="edge1" class="edge">
<title>Node2&#45;&gt;Node1</title>
<path fill="none" stroke="midnightblue" d="M69.5,-45.8C69.5,-36.91 69.5,-26.78 69.5,-19.75"/>
<polygon fill="midnightblue" stroke="midnightblue" points="66,-46.08 69.5,-56.08 73,-46.08 66,-46.08"/>
</g>
<!-- Node3 -->
<g id="node3" class="node">
<title>Node3</title>
<g id="a_node3"><a xlink:href="class_splines_1_1_spline_surf.html" target="_top" xlink:title="Spline Management Class.">
<polygon fill="white" stroke="black" points="19.5,-112.5 19.5,-131.5 119.5,-131.5 119.5,-112.5 19.5,-112.5"/>
<text text-anchor="middle" x="69.5" y="-119.5" font-family="Helvetica,sans-Serif" font-size="10.00">Splines::SplineSurf</text>
</a>
</g>
</g>
<!-- Node3&#45;&gt;Node2 -->
<g id="edge2" class="edge">
<title>Node3&#45;&gt;Node2</title>
<path fill="none" stroke="midnightblue" d="M69.5,-101.8C69.5,-92.91 69.5,-82.78 69.5,-75.75"/>
<polygon fill="midnightblue" stroke="midnightblue" points="66,-102.08 69.5,-112.08 73,-102.08 66,-102.08"/>
</g>
</g>
</svg>
