<?xml version="1.0" encoding="UTF-8" standalone="no"?>
<!DOCTYPE svg PUBLIC "-//W3C//DTD SVG 1.1//EN"
 "http://www.w3.org/Graphics/SVG/1.1/DTD/svg11.dtd">
<!-- Generated by graphviz version 2.44.1 (20200629.0846)
 -->
<!-- Title: Splines::SplineVec Pages: 1 -->
<svg width="107pt" height="163pt"
 viewBox="0.00 0.00 107.00 163.00" xmlns="http://www.w3.org/2000/svg" xmlns:xlink="http://www.w3.org/1999/xlink">
<g id="graph0" class="graph" transform="scale(1 1) rotate(0) translate(4 159)">
<title>Splines::SplineVec</title>
<polygon fill="white" stroke="transparent" points="-4,4 -4,-159 103,-159 103,4 -4,4"/>
<!-- Node1 -->
<g id="node1" class="node">
<title>Node1</title>
<g id="a_node1"><a xlink:title="Splines Management Class.">
<polygon fill="#bfbfbf" stroke="black" points="0,-0.5 0,-19.5 99,-19.5 99,-0.5 0,-0.5"/>
<text text-anchor="middle" x="49.5" y="-7.5" font-family="Helvetica,sans-Serif" font-size="10.00">Splines::SplineVec</text>
</a>
</g>
</g>
<!-- Node2 -->
<g id="node2" class="node">
<title>Node2</title>
<g id="a_node2"><a xlink:title="STL class.">
<polygon fill="white" stroke="#bfbfbf" points="19.5,-67.5 19.5,-86.5 79.5,-86.5 79.5,-67.5 19.5,-67.5"/>
<text text-anchor="middle" x="49.5" y="-74.5" font-family="Helvetica,sans-Serif" font-size="10.00">std::string</text>
</a>
</g>
</g>
<!-- Node2&#45;&gt;Node1 -->
<g id="edge1" class="edge">
<title>Node2&#45;&gt;Node1</title>
<path fill="none" stroke="#9a32cd" stroke-dasharray="5,2" d="M49.5,-57.04C49.5,-44.67 49.5,-29.12 49.5,-19.63"/>
<polygon fill="#9a32cd" stroke="#9a32cd" points="46,-57.23 49.5,-67.23 53,-57.23 46,-57.23"/>
<text text-anchor="middle" x="70" y="-41" font-family="Helvetica,sans-Serif" font-size="10.00"> m_name</text>
</g>
<!-- Node3 -->
<g id="node3" class="node">
<title>Node3</title>
<g id="a_node3"><a xlink:title="STL class.">
<polygon fill="white" stroke="#bfbfbf" points="2,-124.5 2,-154.5 97,-154.5 97,-124.5 2,-124.5"/>
<text text-anchor="start" x="10" y="-142.5" font-family="Helvetica,sans-Serif" font-size="10.00">std::basic_string&lt;</text>
<text text-anchor="middle" x="49.5" y="-131.5" font-family="Helvetica,sans-Serif" font-size="10.00"> char &gt;</text>
</a>
</g>
</g>
<!-- Node3&#45;&gt;Node2 -->
<g id="edge2" class="edge">
<title>Node3&#45;&gt;Node2</title>
<path fill="none" stroke="midnightblue" d="M49.5,-114.35C49.5,-104.51 49.5,-93.78 49.5,-86.54"/>
<polygon fill="midnightblue" stroke="midnightblue" points="46,-114.47 49.5,-124.47 53,-114.47 46,-114.47"/>
</g>
</g>
</svg>
