<?xml version="1.0" encoding="UTF-8" standalone="no"?>
<!DOCTYPE svg PUBLIC "-//W3C//DTD SVG 1.1//EN"
 "http://www.w3.org/Graphics/SVG/1.1/DTD/svg11.dtd">
<!-- Generated by graphviz version 2.44.1 (20200629.0846)
 -->
<!-- Title: Splines::SplineSet Pages: 1 -->
<svg width="312pt" height="241pt"
 viewBox="0.00 0.00 311.50 241.00" xmlns="http://www.w3.org/2000/svg" xmlns:xlink="http://www.w3.org/1999/xlink">
<g id="graph0" class="graph" transform="scale(1 1) rotate(0) translate(4 237)">
<title>Splines::SplineSet</title>
<polygon fill="white" stroke="transparent" points="-4,4 -4,-237 307.5,-237 307.5,4 -4,4"/>
<!-- Node1 -->
<g id="node1" class="node">
<title>Node1</title>
<g id="a_node1"><a xlink:title="Splines Management Class.">
<polygon fill="#bfbfbf" stroke="black" points="114,-0.5 114,-19.5 211,-19.5 211,-0.5 114,-0.5"/>
<text text-anchor="middle" x="162.5" y="-7.5" font-family="Helvetica,sans-Serif" font-size="10.00">Splines::SplineSet</text>
</a>
</g>
</g>
<!-- Node2 -->
<g id="node2" class="node">
<title>Node2</title>
<g id="a_node2"><a xlink:title=" ">
<polygon fill="white" stroke="#bfbfbf" points="0,-67.5 0,-97.5 97,-97.5 97,-67.5 0,-67.5"/>
<text text-anchor="start" x="8" y="-85.5" font-family="Helvetica,sans-Serif" font-size="10.00">Splines::SplineSet</text>
<text text-anchor="middle" x="48.5" y="-74.5" font-family="Helvetica,sans-Serif" font-size="10.00">::BinarySearch</text>
</a>
</g>
</g>
<!-- Node2&#45;&gt;Node1 -->
<g id="edge1" class="edge">
<title>Node2&#45;&gt;Node1</title>
<path fill="none" stroke="#9a32cd" stroke-dasharray="5,2" d="M43.83,-57.15C43.82,-50.32 45.2,-43.32 49.5,-38 57.8,-27.72 87.2,-20.89 113.93,-16.68"/>
<polygon fill="#9a32cd" stroke="#9a32cd" points="40.37,-57.82 44.77,-67.46 47.34,-57.19 40.37,-57.82"/>
<text text-anchor="middle" x="99" y="-41" font-family="Helvetica,sans-Serif" font-size="10.00"> m_header_to_position</text>
</g>
<!-- Node3 -->
<g id="node3" class="node">
<title>Node3</title>
<g id="a_node3"><a xlink:href="class_splines_1_1_spline.html" target="_top" xlink:title="Spline Management Class.">
<polygon fill="white" stroke="black" points="221.5,-73 221.5,-92 303.5,-92 303.5,-73 221.5,-73"/>
<text text-anchor="middle" x="262.5" y="-80" font-family="Helvetica,sans-Serif" font-size="10.00">Splines::Spline</text>
</a>
</g>
</g>
<!-- Node3&#45;&gt;Node1 -->
<g id="edge2" class="edge">
<title>Node3&#45;&gt;Node1</title>
<path fill="none" stroke="#9a32cd" stroke-dasharray="5,2" d="M242.01,-67.05C221.82,-52.82 191.63,-31.54 174.86,-19.72"/>
<polygon fill="#9a32cd" stroke="#9a32cd" points="240.05,-69.95 250.24,-72.86 244.08,-64.23 240.05,-69.95"/>
<text text-anchor="middle" x="238.5" y="-41" font-family="Helvetica,sans-Serif" font-size="10.00"> m_splines</text>
</g>
<!-- Node4 -->
<g id="node4" class="node">
<title>Node4</title>
<g id="a_node4"><a xlink:title="STL class.">
<polygon fill="white" stroke="#bfbfbf" points="148.5,-145.5 148.5,-164.5 208.5,-164.5 208.5,-145.5 148.5,-145.5"/>
<text text-anchor="middle" x="178.5" y="-152.5" font-family="Helvetica,sans-Serif" font-size="10.00">std::string</text>
</a>
</g>
</g>
<!-- Node4&#45;&gt;Node1 -->
<g id="edge5" class="edge">
<title>Node4&#45;&gt;Node1</title>
<path fill="none" stroke="#9a32cd" stroke-dasharray="5,2" d="M176.06,-135.26C174.66,-124.39 172.92,-110.43 171.5,-98 168.23,-69.34 164.85,-35.3 163.33,-19.65"/>
<polygon fill="#9a32cd" stroke="#9a32cd" points="172.6,-135.81 177.35,-145.28 179.54,-134.91 172.6,-135.81"/>
<text text-anchor="middle" x="192" y="-80" font-family="Helvetica,sans-Serif" font-size="10.00"> m_name</text>
</g>
<!-- Node4&#45;&gt;Node3 -->
<g id="edge3" class="edge">
<title>Node4&#45;&gt;Node3</title>
<path fill="none" stroke="#9a32cd" stroke-dasharray="5,2" d="M196.87,-138.58C213.8,-124.37 238.34,-103.77 252.12,-92.22"/>
<polygon fill="#9a32cd" stroke="#9a32cd" points="194.21,-136.25 188.8,-145.36 198.71,-141.61 194.21,-136.25"/>
<text text-anchor="middle" x="243" y="-119" font-family="Helvetica,sans-Serif" font-size="10.00"> m_name</text>
</g>
<!-- Node5 -->
<g id="node5" class="node">
<title>Node5</title>
<g id="a_node5"><a xlink:title="STL class.">
<polygon fill="white" stroke="#bfbfbf" points="131,-202.5 131,-232.5 226,-232.5 226,-202.5 131,-202.5"/>
<text text-anchor="start" x="139" y="-220.5" font-family="Helvetica,sans-Serif" font-size="10.00">std::basic_string&lt;</text>
<text text-anchor="middle" x="178.5" y="-209.5" font-family="Helvetica,sans-Serif" font-size="10.00"> char &gt;</text>
</a>
</g>
</g>
<!-- Node5&#45;&gt;Node4 -->
<g id="edge4" class="edge">
<title>Node5&#45;&gt;Node4</title>
<path fill="none" stroke="midnightblue" d="M178.5,-192.35C178.5,-182.51 178.5,-171.78 178.5,-164.54"/>
<polygon fill="midnightblue" stroke="midnightblue" points="175,-192.47 178.5,-202.47 182,-192.47 175,-192.47"/>
</g>
</g>
</svg>
