<?xml version="1.0" encoding="UTF-8" standalone="no"?>
<!DOCTYPE svg PUBLIC "-//W3C//DTD SVG 1.1//EN"
 "http://www.w3.org/Graphics/SVG/1.1/DTD/svg11.dtd">
<!-- Generated by graphviz version 2.44.1 (20200629.0846)
 -->
<!-- Title: Splines::CubicSplineBase Pages: 1 -->
<svg width="408pt" height="180pt"
 viewBox="0.00 0.00 408.00 180.00" xmlns="http://www.w3.org/2000/svg" xmlns:xlink="http://www.w3.org/1999/xlink">
<g id="graph0" class="graph" transform="scale(1 1) rotate(0) translate(4 176)">
<title>Splines::CubicSplineBase</title>
<polygon fill="white" stroke="transparent" points="-4,4 -4,-176 404,-176 404,4 -4,4"/>
<!-- Node1 -->
<g id="node1" class="node">
<title>Node1</title>
<g id="a_node1"><a xlink:title="cubic spline base class">
<polygon fill="#bfbfbf" stroke="black" points="118,-76.5 118,-95.5 248,-95.5 248,-76.5 118,-76.5"/>
<text text-anchor="middle" x="183" y="-83.5" font-family="Helvetica,sans-Serif" font-size="10.00">Splines::CubicSplineBase</text>
</a>
</g>
</g>
<!-- Node3 -->
<g id="node3" class="node">
<title>Node3</title>
<g id="a_node3"><a xlink:href="class_splines_1_1_akima_spline.html" target="_top" xlink:title="Akima spline class.">
<polygon fill="white" stroke="black" points="287,-152.5 287,-171.5 397,-171.5 397,-152.5 287,-152.5"/>
<text text-anchor="middle" x="342" y="-159.5" font-family="Helvetica,sans-Serif" font-size="10.00">Splines::AkimaSpline</text>
</a>
</g>
</g>
<!-- Node1&#45;&gt;Node3 -->
<g id="edge2" class="edge">
<title>Node1&#45;&gt;Node3</title>
<path fill="none" stroke="midnightblue" d="M207.42,-101.1C227.26,-113.46 256.75,-130.83 284,-143 291.81,-146.49 300.47,-149.69 308.62,-152.43"/>
<polygon fill="midnightblue" stroke="midnightblue" points="209.09,-98.02 198.76,-95.65 205.36,-103.94 209.09,-98.02"/>
</g>
<!-- Node4 -->
<g id="node4" class="node">
<title>Node4</title>
<g id="a_node4"><a xlink:href="class_splines_1_1_bessel_spline.html" target="_top" xlink:title="Bessel spline class.">
<polygon fill="white" stroke="black" points="286,-114.5 286,-133.5 398,-133.5 398,-114.5 286,-114.5"/>
<text text-anchor="middle" x="342" y="-121.5" font-family="Helvetica,sans-Serif" font-size="10.00">Splines::BesselSpline</text>
</a>
</g>
</g>
<!-- Node1&#45;&gt;Node4 -->
<g id="edge3" class="edge">
<title>Node1&#45;&gt;Node4</title>
<path fill="none" stroke="midnightblue" d="M233.45,-97.97C255.45,-103.29 280.99,-109.48 301.67,-114.48"/>
<polygon fill="midnightblue" stroke="midnightblue" points="234.16,-94.54 223.62,-95.59 232.51,-101.34 234.16,-94.54"/>
</g>
<!-- Node5 -->
<g id="node5" class="node">
<title>Node5</title>
<g id="a_node5"><a xlink:href="class_splines_1_1_cubic_spline.html" target="_top" xlink:title="Cubic Spline Management Class.">
<polygon fill="white" stroke="black" points="288.5,-76.5 288.5,-95.5 395.5,-95.5 395.5,-76.5 288.5,-76.5"/>
<text text-anchor="middle" x="342" y="-83.5" font-family="Helvetica,sans-Serif" font-size="10.00">Splines::CubicSpline</text>
</a>
</g>
</g>
<!-- Node1&#45;&gt;Node5 -->
<g id="edge4" class="edge">
<title>Node1&#45;&gt;Node5</title>
<path fill="none" stroke="midnightblue" d="M258.61,-86C268.55,-86 278.58,-86 288.04,-86"/>
<polygon fill="midnightblue" stroke="midnightblue" points="258.31,-82.5 248.31,-86 258.31,-89.5 258.31,-82.5"/>
</g>
<!-- Node6 -->
<g id="node6" class="node">
<title>Node6</title>
<g id="a_node6"><a xlink:href="class_splines_1_1_hermite_spline.html" target="_top" xlink:title="Hermite Spline Management Class.">
<polygon fill="white" stroke="black" points="284,-38.5 284,-57.5 400,-57.5 400,-38.5 284,-38.5"/>
<text text-anchor="middle" x="342" y="-45.5" font-family="Helvetica,sans-Serif" font-size="10.00">Splines::HermiteSpline</text>
</a>
</g>
</g>
<!-- Node1&#45;&gt;Node6 -->
<g id="edge5" class="edge">
<title>Node1&#45;&gt;Node6</title>
<path fill="none" stroke="midnightblue" d="M233.45,-74.03C255.45,-68.71 280.99,-62.52 301.67,-57.52"/>
<polygon fill="midnightblue" stroke="midnightblue" points="232.51,-70.66 223.62,-76.41 234.16,-77.46 232.51,-70.66"/>
</g>
<!-- Node7 -->
<g id="node7" class="node">
<title>Node7</title>
<g id="a_node7"><a xlink:href="class_splines_1_1_pchip_spline.html" target="_top" xlink:title="Pchip (Piecewise Cubic Hermite Interpolating Polynomial) spline class.">
<polygon fill="white" stroke="black" points="288.5,-0.5 288.5,-19.5 395.5,-19.5 395.5,-0.5 288.5,-0.5"/>
<text text-anchor="middle" x="342" y="-7.5" font-family="Helvetica,sans-Serif" font-size="10.00">Splines::PchipSpline</text>
</a>
</g>
</g>
<!-- Node1&#45;&gt;Node7 -->
<g id="edge6" class="edge">
<title>Node1&#45;&gt;Node7</title>
<path fill="none" stroke="midnightblue" d="M207.42,-70.9C227.26,-58.54 256.75,-41.17 284,-29 291.81,-25.51 300.47,-22.31 308.62,-19.57"/>
<polygon fill="midnightblue" stroke="midnightblue" points="205.36,-68.06 198.76,-76.35 209.09,-73.98 205.36,-68.06"/>
</g>
<!-- Node2 -->
<g id="node2" class="node">
<title>Node2</title>
<g id="a_node2"><a xlink:href="class_splines_1_1_spline.html" target="_top" xlink:title="Spline Management Class.">
<polygon fill="white" stroke="black" points="0,-76.5 0,-95.5 82,-95.5 82,-76.5 0,-76.5"/>
<text text-anchor="middle" x="41" y="-83.5" font-family="Helvetica,sans-Serif" font-size="10.00">Splines::Spline</text>
</a>
</g>
</g>
<!-- Node2&#45;&gt;Node1 -->
<g id="edge1" class="edge">
<title>Node2&#45;&gt;Node1</title>
<path fill="none" stroke="midnightblue" d="M92.34,-86C100.61,-86 109.27,-86 117.82,-86"/>
<polygon fill="midnightblue" stroke="midnightblue" points="92.12,-82.5 82.12,-86 92.12,-89.5 92.12,-82.5"/>
</g>
</g>
</svg>
