<?xml version="1.0" encoding="UTF-8" standalone="no"?>
<!DOCTYPE svg PUBLIC "-//W3C//DTD SVG 1.1//EN"
 "http://www.w3.org/Graphics/SVG/1.1/DTD/svg11.dtd">
<!-- Generated by graphviz version 2.44.1 (20200629.0846)
 -->
<!-- Title: Graphical Class Hierarchy Pages: 1 -->
<svg width="413pt" height="218pt"
 viewBox="0.00 0.00 413.00 218.00" xmlns="http://www.w3.org/2000/svg" xmlns:xlink="http://www.w3.org/1999/xlink">
<g id="graph0" class="graph" transform="scale(1 1) rotate(0) translate(4 214)">
<title>Graphical Class Hierarchy</title>
<polygon fill="white" stroke="transparent" points="-4,4 -4,-214 409,-214 409,4 -4,4"/>
<!-- Node0 -->
<g id="node1" class="node">
<title>Node0</title>
<g id="a_node1"><a xlink:href="class_splines_1_1_spline.html" target="_top" xlink:title="Spline Management Class.">
<polygon fill="white" stroke="black" points="0,-85.5 0,-104.5 82,-104.5 82,-85.5 0,-85.5"/>
<text text-anchor="middle" x="41" y="-92.5" font-family="Helvetica,sans-Serif" font-size="10.00">Splines::Spline</text>
</a>
</g>
</g>
<!-- Node1 -->
<g id="node2" class="node">
<title>Node1</title>
<g id="a_node2"><a xlink:href="class_splines_1_1_constant_spline.html" target="_top" xlink:title="Picewise constants spline class.">
<polygon fill="white" stroke="black" points="124.5,-142.5 124.5,-161.5 246.5,-161.5 246.5,-142.5 124.5,-142.5"/>
<text text-anchor="middle" x="185.5" y="-149.5" font-family="Helvetica,sans-Serif" font-size="10.00">Splines::ConstantSpline</text>
</a>
</g>
</g>
<!-- Node0&#45;&gt;Node1 -->
<g id="edge1" class="edge">
<title>Node0&#45;&gt;Node1</title>
<path fill="none" stroke="midnightblue" d="M67.66,-109.32C82.14,-117.02 100.74,-126.29 118,-133 127.06,-136.53 137.05,-139.72 146.47,-142.45"/>
<polygon fill="midnightblue" stroke="midnightblue" points="69.25,-106.21 58.79,-104.53 65.93,-112.36 69.25,-106.21"/>
</g>
<!-- Node2 -->
<g id="node3" class="node">
<title>Node2</title>
<g id="a_node3"><a xlink:href="class_splines_1_1_cubic_spline_base.html" target="_top" xlink:title="cubic spline base class">
<polygon fill="white" stroke="black" points="120.5,-104.5 120.5,-123.5 250.5,-123.5 250.5,-104.5 120.5,-104.5"/>
<text text-anchor="middle" x="185.5" y="-111.5" font-family="Helvetica,sans-Serif" font-size="10.00">Splines::CubicSplineBase</text>
</a>
</g>
</g>
<!-- Node0&#45;&gt;Node2 -->
<g id="edge2" class="edge">
<title>Node0&#45;&gt;Node2</title>
<path fill="none" stroke="midnightblue" d="M92.15,-101.69C101.31,-102.91 110.97,-104.2 120.46,-105.46"/>
<polygon fill="midnightblue" stroke="midnightblue" points="92.45,-98.2 82.07,-100.34 91.52,-105.13 92.45,-98.2"/>
</g>
<!-- Node8 -->
<g id="node9" class="node">
<title>Node8</title>
<g id="a_node9"><a xlink:href="class_splines_1_1_linear_spline.html" target="_top" xlink:title="Linear spline class.">
<polygon fill="white" stroke="black" points="131.5,-66.5 131.5,-85.5 239.5,-85.5 239.5,-66.5 131.5,-66.5"/>
<text text-anchor="middle" x="185.5" y="-73.5" font-family="Helvetica,sans-Serif" font-size="10.00">Splines::LinearSpline</text>
</a>
</g>
</g>
<!-- Node0&#45;&gt;Node8 -->
<g id="edge8" class="edge">
<title>Node0&#45;&gt;Node8</title>
<path fill="none" stroke="midnightblue" d="M92.05,-88.33C104.79,-86.63 118.54,-84.8 131.43,-83.08"/>
<polygon fill="midnightblue" stroke="midnightblue" points="91.52,-84.87 82.07,-89.66 92.45,-91.8 91.52,-84.87"/>
</g>
<!-- Node9 -->
<g id="node10" class="node">
<title>Node9</title>
<g id="a_node10"><a xlink:href="class_splines_1_1_quintic_spline_base.html" target="_top" xlink:title="cubic quintic base class">
<polygon fill="white" stroke="black" points="118,-19.5 118,-38.5 253,-38.5 253,-19.5 118,-19.5"/>
<text text-anchor="middle" x="185.5" y="-26.5" font-family="Helvetica,sans-Serif" font-size="10.00">Splines::QuinticSplineBase</text>
</a>
</g>
</g>
<!-- Node0&#45;&gt;Node9 -->
<g id="edge9" class="edge">
<title>Node0&#45;&gt;Node9</title>
<path fill="none" stroke="midnightblue" d="M69.56,-80.68C83.9,-73.37 101.77,-64.46 118,-57 132,-50.56 147.9,-43.85 160.64,-38.61"/>
<polygon fill="midnightblue" stroke="midnightblue" points="67.57,-77.77 60.27,-85.45 70.76,-84 67.57,-77.77"/>
</g>
<!-- Node3 -->
<g id="node4" class="node">
<title>Node3</title>
<g id="a_node4"><a xlink:href="class_splines_1_1_akima_spline.html" target="_top" xlink:title="Akima spline class.">
<polygon fill="white" stroke="black" points="292,-190.5 292,-209.5 402,-209.5 402,-190.5 292,-190.5"/>
<text text-anchor="middle" x="347" y="-197.5" font-family="Helvetica,sans-Serif" font-size="10.00">Splines::AkimaSpline</text>
</a>
</g>
</g>
<!-- Node2&#45;&gt;Node3 -->
<g id="edge3" class="edge">
<title>Node2&#45;&gt;Node3</title>
<path fill="none" stroke="midnightblue" d="M243.74,-127.6C246.98,-129.21 250.09,-131 253,-133 274.97,-148.12 267.37,-165.41 289,-181 294.33,-184.84 300.49,-187.94 306.75,-190.44"/>
<polygon fill="midnightblue" stroke="midnightblue" points="244.93,-124.3 234.36,-123.56 242.16,-130.73 244.93,-124.3"/>
</g>
<!-- Node4 -->
<g id="node5" class="node">
<title>Node4</title>
<g id="a_node5"><a xlink:href="class_splines_1_1_bessel_spline.html" target="_top" xlink:title="Bessel spline class.">
<polygon fill="white" stroke="black" points="291,-152.5 291,-171.5 403,-171.5 403,-152.5 291,-152.5"/>
<text text-anchor="middle" x="347" y="-159.5" font-family="Helvetica,sans-Serif" font-size="10.00">Splines::BesselSpline</text>
</a>
</g>
</g>
<!-- Node2&#45;&gt;Node4 -->
<g id="edge4" class="edge">
<title>Node2&#45;&gt;Node4</title>
<path fill="none" stroke="midnightblue" d="M230.2,-126.32C237.81,-128.52 245.64,-130.8 253,-133 274.07,-139.29 297.72,-146.67 315.9,-152.41"/>
<polygon fill="midnightblue" stroke="midnightblue" points="230.95,-122.9 220.38,-123.51 229.03,-129.63 230.95,-122.9"/>
</g>
<!-- Node5 -->
<g id="node6" class="node">
<title>Node5</title>
<g id="a_node6"><a xlink:href="class_splines_1_1_cubic_spline.html" target="_top" xlink:title="Cubic Spline Management Class.">
<polygon fill="white" stroke="black" points="293.5,-114.5 293.5,-133.5 400.5,-133.5 400.5,-114.5 293.5,-114.5"/>
<text text-anchor="middle" x="347" y="-121.5" font-family="Helvetica,sans-Serif" font-size="10.00">Splines::CubicSpline</text>
</a>
</g>
</g>
<!-- Node2&#45;&gt;Node5 -->
<g id="edge5" class="edge">
<title>Node2&#45;&gt;Node5</title>
<path fill="none" stroke="midnightblue" d="M261.18,-118.68C271.96,-119.36 282.85,-120.04 293.08,-120.68"/>
<polygon fill="midnightblue" stroke="midnightblue" points="261.11,-115.17 250.92,-118.04 260.68,-122.16 261.11,-115.17"/>
</g>
<!-- Node6 -->
<g id="node7" class="node">
<title>Node6</title>
<g id="a_node7"><a xlink:href="class_splines_1_1_hermite_spline.html" target="_top" xlink:title="Hermite Spline Management Class.">
<polygon fill="white" stroke="black" points="289,-76.5 289,-95.5 405,-95.5 405,-76.5 289,-76.5"/>
<text text-anchor="middle" x="347" y="-83.5" font-family="Helvetica,sans-Serif" font-size="10.00">Splines::HermiteSpline</text>
</a>
</g>
</g>
<!-- Node2&#45;&gt;Node6 -->
<g id="edge6" class="edge">
<title>Node2&#45;&gt;Node6</title>
<path fill="none" stroke="midnightblue" d="M251.12,-102.66C264.62,-100.29 278.72,-97.81 291.8,-95.51"/>
<polygon fill="midnightblue" stroke="midnightblue" points="250.19,-99.27 240.94,-104.44 251.4,-106.16 250.19,-99.27"/>
</g>
<!-- Node7 -->
<g id="node8" class="node">
<title>Node7</title>
<g id="a_node8"><a xlink:href="class_splines_1_1_pchip_spline.html" target="_top" xlink:title="Pchip (Piecewise Cubic Hermite Interpolating Polynomial) spline class.">
<polygon fill="white" stroke="black" points="293.5,-38.5 293.5,-57.5 400.5,-57.5 400.5,-38.5 293.5,-38.5"/>
<text text-anchor="middle" x="347" y="-45.5" font-family="Helvetica,sans-Serif" font-size="10.00">Splines::PchipSpline</text>
</a>
</g>
</g>
<!-- Node2&#45;&gt;Node7 -->
<g id="edge7" class="edge">
<title>Node2&#45;&gt;Node7</title>
<path fill="none" stroke="midnightblue" d="M238.77,-101.16C243.68,-99.33 248.5,-97.28 253,-95 271.07,-85.83 271.13,-76.56 289,-67 295.9,-63.31 303.65,-60.15 311.15,-57.53"/>
<polygon fill="midnightblue" stroke="midnightblue" points="237.62,-97.85 229.29,-104.4 239.88,-104.48 237.62,-97.85"/>
</g>
<!-- Node10 -->
<g id="node11" class="node">
<title>Node10</title>
<g id="a_node11"><a xlink:href="class_splines_1_1_quintic_spline.html" target="_top" xlink:title="Quintic spline class.">
<polygon fill="white" stroke="black" points="290.5,-0.5 290.5,-19.5 403.5,-19.5 403.5,-0.5 290.5,-0.5"/>
<text text-anchor="middle" x="347" y="-7.5" font-family="Helvetica,sans-Serif" font-size="10.00">Splines::QuinticSpline</text>
</a>
</g>
</g>
<!-- Node9&#45;&gt;Node10 -->
<g id="edge10" class="edge">
<title>Node9&#45;&gt;Node10</title>
<path fill="none" stroke="midnightblue" d="M263.37,-19.84C272.41,-18.77 281.49,-17.68 290.16,-16.65"/>
<polygon fill="midnightblue" stroke="midnightblue" points="262.73,-16.39 253.22,-21.05 263.56,-23.34 262.73,-16.39"/>
</g>
</g>
</svg>
