<?xml version="1.0" encoding="UTF-8" standalone="no"?>
<!DOCTYPE svg PUBLIC "-//W3C//DTD SVG 1.1//EN"
 "http://www.w3.org/Graphics/SVG/1.1/DTD/svg11.dtd">
<!-- Generated by graphviz version 2.44.1 (20200629.0846)
 -->
<!-- Title: Graphical Class Hierarchy Pages: 1 -->
<svg width="446pt" height="123pt"
 viewBox="0.00 0.00 446.00 123.00" xmlns="http://www.w3.org/2000/svg" xmlns:xlink="http://www.w3.org/1999/xlink">
<g id="graph0" class="graph" transform="scale(1 1) rotate(0) translate(4 119)">
<title>Graphical Class Hierarchy</title>
<polygon fill="white" stroke="transparent" points="-4,4 -4,-119 442,-119 442,4 -4,4"/>
<!-- Node0 -->
<g id="node1" class="node">
<title>Node0</title>
<g id="a_node1"><a xlink:href="class_splines_1_1_spline_surf.html" target="_top" xlink:title="Spline Management Class.">
<polygon fill="white" stroke="black" points="0,-38.5 0,-57.5 100,-57.5 100,-38.5 0,-38.5"/>
<text text-anchor="middle" x="50" y="-45.5" font-family="Helvetica,sans-Serif" font-size="10.00">Splines::SplineSurf</text>
</a>
</g>
</g>
<!-- Node1 -->
<g id="node2" class="node">
<title>Node1</title>
<g id="a_node2"><a xlink:href="class_splines_1_1_bi_cubic_spline_base.html" target="_top" xlink:title="Bi&#45;cubic spline base class.">
<polygon fill="white" stroke="black" points="138.5,-76.5 138.5,-95.5 277.5,-95.5 277.5,-76.5 138.5,-76.5"/>
<text text-anchor="middle" x="208" y="-83.5" font-family="Helvetica,sans-Serif" font-size="10.00">Splines::BiCubicSplineBase</text>
</a>
</g>
</g>
<!-- Node0&#45;&gt;Node1 -->
<g id="edge1" class="edge">
<title>Node0&#45;&gt;Node1</title>
<path fill="none" stroke="midnightblue" d="M100.13,-59.97C121.99,-65.29 147.38,-71.48 167.92,-76.48"/>
<polygon fill="midnightblue" stroke="midnightblue" points="100.91,-56.56 90.37,-57.59 99.25,-63.36 100.91,-56.56"/>
</g>
<!-- Node4 -->
<g id="node5" class="node">
<title>Node4</title>
<g id="a_node5"><a xlink:href="class_splines_1_1_bilinear_spline.html" target="_top" xlink:title="bilinear spline base class">
<polygon fill="white" stroke="black" points="151,-38.5 151,-57.5 265,-57.5 265,-38.5 151,-38.5"/>
<text text-anchor="middle" x="208" y="-45.5" font-family="Helvetica,sans-Serif" font-size="10.00">Splines::BilinearSpline</text>
</a>
</g>
</g>
<!-- Node0&#45;&gt;Node4 -->
<g id="edge4" class="edge">
<title>Node0&#45;&gt;Node4</title>
<path fill="none" stroke="midnightblue" d="M110.75,-48C123.94,-48 137.86,-48 150.9,-48"/>
<polygon fill="midnightblue" stroke="midnightblue" points="110.36,-44.5 100.36,-48 110.36,-51.5 110.36,-44.5"/>
</g>
<!-- Node5 -->
<g id="node6" class="node">
<title>Node5</title>
<g id="a_node6"><a xlink:href="class_splines_1_1_bi_quintic_spline_base.html" target="_top" xlink:title="Bi&#45;quintic spline base class.">
<polygon fill="white" stroke="black" points="136,-0.5 136,-19.5 280,-19.5 280,-0.5 136,-0.5"/>
<text text-anchor="middle" x="208" y="-7.5" font-family="Helvetica,sans-Serif" font-size="10.00">Splines::BiQuinticSplineBase</text>
</a>
</g>
</g>
<!-- Node0&#45;&gt;Node5 -->
<g id="edge5" class="edge">
<title>Node0&#45;&gt;Node5</title>
<path fill="none" stroke="midnightblue" d="M100.13,-36.03C121.99,-30.71 147.38,-24.52 167.92,-19.52"/>
<polygon fill="midnightblue" stroke="midnightblue" points="99.25,-32.64 90.37,-38.41 100.91,-39.44 99.25,-32.64"/>
</g>
<!-- Node2 -->
<g id="node3" class="node">
<title>Node2</title>
<g id="a_node3"><a xlink:href="class_splines_1_1_akima2_dspline.html" target="_top" xlink:title="cubic spline base class">
<polygon fill="white" stroke="black" points="316.5,-95.5 316.5,-114.5 437.5,-114.5 437.5,-95.5 316.5,-95.5"/>
<text text-anchor="middle" x="377" y="-102.5" font-family="Helvetica,sans-Serif" font-size="10.00">Splines::Akima2Dspline</text>
</a>
</g>
</g>
<!-- Node1&#45;&gt;Node2 -->
<g id="edge2" class="edge">
<title>Node1&#45;&gt;Node2</title>
<path fill="none" stroke="midnightblue" d="M287.83,-94.97C297.42,-96.06 307.09,-97.16 316.33,-98.21"/>
<polygon fill="midnightblue" stroke="midnightblue" points="288.22,-91.49 277.89,-93.84 287.43,-98.45 288.22,-91.49"/>
</g>
<!-- Node3 -->
<g id="node4" class="node">
<title>Node3</title>
<g id="a_node4"><a xlink:href="class_splines_1_1_bi_cubic_spline.html" target="_top" xlink:title="cubic spline base class">
<polygon fill="white" stroke="black" points="319,-57.5 319,-76.5 435,-76.5 435,-57.5 319,-57.5"/>
<text text-anchor="middle" x="377" y="-64.5" font-family="Helvetica,sans-Serif" font-size="10.00">Splines::BiCubicSpline</text>
</a>
</g>
</g>
<!-- Node1&#45;&gt;Node3 -->
<g id="edge3" class="edge">
<title>Node1&#45;&gt;Node3</title>
<path fill="none" stroke="midnightblue" d="M287.89,-77.03C298.36,-75.83 308.94,-74.63 318.95,-73.49"/>
<polygon fill="midnightblue" stroke="midnightblue" points="287.43,-73.55 277.89,-78.16 288.22,-80.51 287.43,-73.55"/>
</g>
<!-- Node6 -->
<g id="node7" class="node">
<title>Node6</title>
<g id="a_node7"><a xlink:href="class_splines_1_1_bi_quintic_spline.html" target="_top" xlink:title="cubic spline base class">
<polygon fill="white" stroke="black" points="316,-0.5 316,-19.5 438,-19.5 438,-0.5 316,-0.5"/>
<text text-anchor="middle" x="377" y="-7.5" font-family="Helvetica,sans-Serif" font-size="10.00">Splines::BiQuinticSpline</text>
</a>
</g>
</g>
<!-- Node5&#45;&gt;Node6 -->
<g id="edge6" class="edge">
<title>Node5&#45;&gt;Node6</title>
<path fill="none" stroke="midnightblue" d="M290.39,-10C299.01,-10 307.65,-10 315.97,-10"/>
<polygon fill="midnightblue" stroke="midnightblue" points="290.31,-6.5 280.31,-10 290.31,-13.5 290.31,-6.5"/>
</g>
</g>
</svg>
