<?xml version="1.0" encoding="UTF-8" standalone="no"?>
<!-- Created with Inkscape (http://www.inkscape.org/) -->
<svg
   xmlns:svg="http://www.w3.org/2000/svg"
   xmlns="http://www.w3.org/2000/svg"
   version="1.0"
   width="590.47284"
   height="194.60396"
   id="svg2">
  <defs
     id="defs4" />
  <g
     transform="translate(-88.431883,-70.329665)"
     id="layer1">
    <g
       transform="translate(9.9989644,-5.6928294)"
       id="g4131">
      <path
         d="M 91.451822,144.742 C 91.451822,144.742 132.20734,131.8395 172.55323,105.4201 C 208.31693,82.001222 229.98908,71.749812 252.83543,88.216775 C 275.37889,104.46541 289.52381,191.25251 332.29842,204.54405 C 368.54829,215.80813 373.25873,151.70525 414.21904,166.04136 C 454.45037,180.12232 455.38413,260.45487 492.86283,261.88848 C 533.09658,263.42746 539.75952,192.04859 573.96424,145.56121 C 608.46784,98.6676 655.88484,127.53866 655.88484,127.53866"
         style="fill:none;fill-rule:evenodd;stroke:#000000;stroke-width:6.35738039;stroke-linecap:butt;stroke-linejoin:miter;stroke-miterlimit:4;stroke-dasharray:none;stroke-opacity:1"
         id="path2172" />
      <path
         d="M 158.23892 245.44675 A 18.297987 18.297987 0 1 1  121.64295,245.44675 A 18.297987 18.297987 0 1 1  158.23892 245.44675 z"
         transform="matrix(0.4253193,0,0,0.4253193,31.932247,40.348309)"
         style="fill:#ff0000;fill-opacity:1;fill-rule:evenodd;stroke:none;stroke-width:4;stroke-linecap:butt;stroke-linejoin:miter;stroke-miterlimit:4;stroke-dasharray:none;stroke-opacity:1"
         id="path3146" />
      <path
         d="M 158.23892 245.44675 A 18.297987 18.297987 0 1 1  121.64295,245.44675 A 18.297987 18.297987 0 1 1  158.23892 245.44675 z"
         transform="matrix(0.4253193,0,0,0.4253193,112.77634,1.1947771)"
         style="fill:#ff0000;fill-opacity:1;fill-rule:evenodd;stroke:none;stroke-width:4;stroke-linecap:butt;stroke-linejoin:miter;stroke-miterlimit:4;stroke-dasharray:none;stroke-opacity:1"
         id="path4117" />
      <path
         d="M 158.23892 245.44675 A 18.297987 18.297987 0 1 1  121.64295,245.44675 A 18.297987 18.297987 0 1 1  158.23892 245.44675 z"
         transform="matrix(0.4253193,0,0,0.4253193,192.99309,-16.408439)"
         style="fill:#ff0000;fill-opacity:1;fill-rule:evenodd;stroke:none;stroke-width:4;stroke-linecap:butt;stroke-linejoin:miter;stroke-miterlimit:4;stroke-dasharray:none;stroke-opacity:1"
         id="path4119" />
      <path
         d="M 158.23892 245.44675 A 18.297987 18.297987 0 1 1  121.64295,245.44675 A 18.297987 18.297987 0 1 1  158.23892 245.44675 z"
         transform="matrix(0.4253193,0,0,0.4253193,273.161,100.26663)"
         style="fill:#ff0000;fill-opacity:1;fill-rule:evenodd;stroke:none;stroke-width:4;stroke-linecap:butt;stroke-linejoin:miter;stroke-miterlimit:4;stroke-dasharray:none;stroke-opacity:1"
         id="path4121" />
      <path
         d="M 158.23892 245.44675 A 18.297987 18.297987 0 1 1  121.64295,245.44675 A 18.297987 18.297987 0 1 1  158.23892 245.44675 z"
         transform="matrix(0.4253193,0,0,0.4253193,355.13031,61.801208)"
         style="fill:#ff0000;fill-opacity:1;fill-rule:evenodd;stroke:none;stroke-width:4;stroke-linecap:butt;stroke-linejoin:miter;stroke-miterlimit:4;stroke-dasharray:none;stroke-opacity:1"
         id="path4123" />
      <path
         d="M 158.23892 245.44675 A 18.297987 18.297987 0 1 1  121.64295,245.44675 A 18.297987 18.297987 0 1 1  158.23892 245.44675 z"
         transform="matrix(0.4253193,0,0,0.4253193,433.43988,157.49873)"
         style="fill:#ff0000;fill-opacity:1;fill-rule:evenodd;stroke:none;stroke-width:4;stroke-linecap:butt;stroke-linejoin:miter;stroke-miterlimit:4;stroke-dasharray:none;stroke-opacity:1"
         id="path4125" />
      <path
         d="M 158.23892 245.44675 A 18.297987 18.297987 0 1 1  121.64295,245.44675 A 18.297987 18.297987 0 1 1  158.23892 245.44675 z"
         transform="matrix(0.4253193,0,0,0.4253193,514.36346,41.280351)"
         style="fill:#ff0000;fill-opacity:1;fill-rule:evenodd;stroke:none;stroke-width:4;stroke-linecap:butt;stroke-linejoin:miter;stroke-miterlimit:4;stroke-dasharray:none;stroke-opacity:1"
         id="path4127" />
      <path
         d="M 158.23892 245.44675 A 18.297987 18.297987 0 1 1  121.64295,245.44675 A 18.297987 18.297987 0 1 1  158.23892 245.44675 z"
         transform="matrix(0.4253193,0,0,0.4253193,596.36727,23.14492)"
         style="fill:#ff0000;fill-opacity:1;fill-rule:evenodd;stroke:none;stroke-width:4;stroke-linecap:butt;stroke-linejoin:miter;stroke-miterlimit:4;stroke-dasharray:none;stroke-opacity:1"
         id="path4129" />
    </g>
  </g>
</svg>
